<svg width="30" height="30" viewBox="0 0 30 30" fill="none" xmlns="http://www.w3.org/2000/svg">
<path d="M21.7125 4.23828C21.391 4.23828 21.1299 4.4976 21.1299 4.81898C21.1299 5.14041 21.391 5.39968 21.7125 5.39968C23.2539 5.39968 24.5072 6.64854 24.5072 8.18243C24.5072 8.50382 24.7683 8.76313 25.0898 8.76313C25.4113 8.76313 25.6723 8.50381 25.6723 8.18243C25.6723 6.00709 23.8955 4.23828 21.7125 4.23828Z" fill="white" stroke="white" stroke-width="0.25"/>
<path d="M4.33105 8.18243C4.33105 8.50381 4.59213 8.76313 4.91363 8.76313C5.23509 8.76313 5.49621 8.50382 5.49621 8.18243C5.49621 6.64854 6.74949 5.39968 8.29093 5.39968C8.61243 5.39968 8.87351 5.14041 8.87351 4.81898C8.87351 4.4976 8.61244 4.23828 8.29093 4.23828C6.10786 4.23828 4.33105 6.00709 4.33105 8.18243Z" fill="white" stroke="white" stroke-width="0.25"/>
<path d="M22.3882 0.875C22.0667 0.875 21.8057 1.13432 21.8057 1.4557C21.8057 1.77707 22.0667 2.03639 22.3882 2.03639C25.4195 2.03639 27.8851 4.49214 27.8851 7.50968C27.8851 7.83112 28.1462 8.09037 28.4677 8.09037C28.7891 8.09037 29.0503 7.83112 29.0503 7.50968C29.0503 3.85067 26.0611 0.875 22.3882 0.875Z" fill="white" stroke="white" stroke-width="0.25"/>
<path d="M8.19633 1.4557C8.19633 1.13431 7.93521 0.875 7.61375 0.875C3.94086 0.875 0.952148 3.85068 0.952148 7.50968C0.952148 7.83112 1.21328 8.09037 1.53473 8.09037C1.85617 8.09037 2.11731 7.83112 2.11731 7.50968C2.11731 4.49213 4.58243 2.03639 7.61375 2.03639C7.93521 2.03639 8.19633 1.77708 8.19633 1.4557Z" fill="white" stroke="white" stroke-width="0.25"/>
<path d="M5.64695 21.4325L5.76545 21.4723L5.64695 21.4325L4.32111 25.3819C4.07897 26.1031 4.61826 26.847 5.38016 26.847H11.7516C12.1887 28.1699 13.4376 29.1255 14.912 29.1255C16.3864 29.1255 17.6353 28.1699 18.0723 26.847H24.4438C25.2057 26.847 25.745 26.1031 25.5029 25.3819L24.177 21.4325C24.1169 21.2534 24.01 21.1057 23.8827 20.9869C23.8923 20.7274 23.8982 20.466 23.8982 20.2021C23.8982 17.0821 23.2495 14.198 22.1499 11.8646C21.0685 9.57002 19.5471 7.80022 17.7696 6.86995C17.8112 6.67647 17.8353 6.47565 17.8353 6.26821C17.8353 4.65962 16.526 3.35645 14.912 3.35645C13.298 3.35645 11.9887 4.65962 11.9887 6.26821C11.9887 6.47565 12.0128 6.67647 12.0544 6.86995C10.2768 7.80022 8.75542 9.57002 7.67408 11.8646C6.57445 14.198 5.92575 17.0821 5.92575 20.2021C5.92575 20.466 5.93172 20.7274 5.94127 20.9869C5.814 21.1057 5.7071 21.2534 5.64695 21.4325ZM13.3376 7.54235L13.4265 7.49741L13.4026 7.40074L13.2251 6.68406L13.2251 6.68406C13.1887 6.53729 13.1714 6.40154 13.1714 6.26822C13.1714 5.31333 13.9519 4.53538 14.912 4.53538C15.8721 4.53538 16.6525 5.31333 16.6525 6.26822C16.6525 6.40154 16.6353 6.53729 16.5989 6.68406L16.4214 7.40074L16.3975 7.49741L16.4864 7.54235L17.1473 7.87646L17.2037 7.76491L17.1473 7.87646C18.7728 8.69815 20.1656 10.369 21.1528 12.5473C22.1392 14.7237 22.7155 17.3958 22.7155 20.2021C22.7155 20.3518 22.7137 20.5031 22.7103 20.6554H7.11367C7.11025 20.5031 7.10852 20.3518 7.10852 20.2021C7.10852 17.3958 7.68479 14.7237 8.67119 12.5473C9.65842 10.369 11.0512 8.69815 12.6767 7.87646L12.6203 7.76491L12.6767 7.87646L13.3376 7.54235ZM24.3762 25.6856H18.115H11.7089H5.44782L6.74073 21.8343H23.0833L24.3762 25.6856ZM14.912 27.9641C14.0966 27.9641 13.385 27.5125 13.0164 26.847H16.8075C16.439 27.5125 15.7274 27.9641 14.912 27.9641Z" fill="white" stroke="white" stroke-width="0.25"/>
</svg>
